<svg width="1213" height="545" viewBox="0 0 1213 545" fill="none" xmlns="http://www.w3.org/2000/svg">
<path d="M140.825 572.879C151.59 558.668 150.52 518.592 165.746 529.711C178.474 538.987 134.045 599.219 140.587 607.96C147.189 616.7 188.347 633.408 193.343 628.533C198.339 623.657 191.915 608.316 201.967 590.538C213.862 569.549 206.963 540.771 217.074 543.149C227.184 545.528 224.865 562.057 222.783 576.565C220.821 590.181 212.553 631.327 220.702 634.538C228.85 637.749 265.368 637.749 268.699 633.587C272.029 629.424 270.245 613.489 270.542 602.489C270.899 588.933 254.008 569.43 263.584 566.1C273.159 562.83 276.252 577.576 278.572 588.635C280.713 598.981 281.427 627.878 289.932 629.603C298.437 631.327 325.439 621.397 328.234 617.652C331.03 613.906 311.165 587.625 318.242 588.041C324.666 588.457 329.067 603.738 335.669 614.5C348.218 608.911 358.151 602.965 363.503 597.495C370.581 590.241 373.614 573.949 373.852 554.387C364.455 557.419 336.918 565.565 330.554 557.895C323.476 549.333 371.176 545.944 373.555 539.165C375.934 532.387 374.685 509.317 368.975 499.744C366.18 495.047 349.408 495.344 331.743 501.884C313.187 508.782 293.5 521.922 283.984 515.679C264.654 503.074 315.566 498.198 340.129 489.874C352.203 485.771 362.671 481.906 363.622 475.306C364.574 468.706 359.221 460.501 356.783 454.614C354.047 448.014 346.91 432.793 340.308 428.987C333.706 425.182 310.808 437.787 289.813 451.641C259.956 471.322 254.722 492.311 242.351 488.447C229.98 484.641 249.666 449.739 271.197 436.301C288.861 425.242 321.989 412.636 318.361 405.798C314.733 398.961 287.909 375.355 269.294 372.026C250.678 368.755 222.605 456.577 210.769 450.809C198.16 444.625 224.211 410.852 230.931 394.025C235.452 382.728 241.518 368.577 239.912 361.977C238.247 355.377 211.423 355.199 202.323 361.263C193.283 367.328 189.477 426.371 173.835 424.587C156.111 422.506 175.321 394.798 178.414 381.955C179.663 376.663 179.604 371.312 179.068 366.734C171.634 369.35 164.437 372.68 157.895 377.02C128.454 396.285 125.361 440.047 125.361 440.047C125.361 440.047 99.0136 451.403 87.3563 469.241C80.7545 479.29 73.7958 499.744 75.2233 522.874C80.2787 519.841 86.2263 517.463 92.2334 515.382C105.972 510.565 122.804 492.965 124.172 505.511C125.421 517.344 83.3715 540.295 82.3009 553.079C82.063 555.873 84.7989 558.727 86.3452 561.463C94.2555 575.673 119.473 601.062 125.421 599.1C132.439 596.781 129.525 588.041 141.063 572.879L140.825 572.879Z" fill="#76AB9F"/>
<path d="M75.0448 522.933C80.1003 519.901 86.0479 517.522 92.055 515.441C105.794 510.625 122.626 493.025 123.994 505.571C125.243 517.404 83.193 540.355 82.1225 553.139C81.8846 555.933 84.6204 558.787 86.1668 561.522C94.0771 575.733 119.295 601.122 125.243 599.16C132.261 596.841 129.346 588.1 140.885 572.938C151.65 558.728 150.579 518.652 165.805 529.771C178.533 539.047 134.104 599.279 140.647 608.019C147.249 616.76 188.406 633.468 193.402 628.592C198.398 623.717 191.975 608.376 202.026 590.598C213.921 569.609 207.022 540.83 217.133 543.209C227.244 545.587 224.924 562.117 222.843 576.625C220.88 590.241 212.613 631.387 220.761 634.598C228.909 637.809 265.427 637.809 268.758 633.646C272.089 629.484 270.305 613.549 270.602 602.549C270.959 588.992 254.068 569.49 263.643 566.16C273.219 562.89 276.312 577.636 278.631 588.695C280.772 599.041 281.486 627.938 289.991 629.663C298.496 631.387 325.498 621.457 328.294 617.711C331.089 613.965 311.224 587.684 318.302 588.101C324.725 588.517 329.126 603.798 335.728 614.56C348.278 608.971 358.21 603.025 363.563 597.555C365.169 595.89 366.537 593.749 367.726 591.192C325.32 574.841 254.365 530.306 222.843 508.663C189.893 486.068 184.183 477.031 125.361 440.166C125.361 440.166 99.0136 451.523 87.3563 469.361C80.7545 479.409 73.7958 499.863 75.2232 522.993L75.0448 522.933Z" fill="#609790"/>
<path d="M352.203 588.576C352.203 588.576 328.175 577.873 293.976 558.549C276.847 548.917 257.279 537.025 236.76 523.409C216.241 509.733 195.305 494.393 173.656 479.944C162.891 472.69 151.947 465.614 141.182 458.717C130.358 451.879 119.592 445.398 109.125 439.274C98.5973 433.209 88.308 427.56 78.435 422.447C73.439 419.949 68.6215 417.571 63.9823 415.193C59.2242 412.993 54.6446 410.912 50.3028 408.89C41.4409 405.085 33.2928 401.577 25.9177 399.02C18.6022 396.166 12.0598 394.323 6.76645 392.658C1.4136 390.993 -2.86871 390.16 -5.72357 389.387C-8.63788 388.674 -10.1843 388.317 -10.1843 388.317L-10.6006 388.198C-13.8717 387.366 -15.8344 384.096 -15.0612 380.825C-14.2286 377.555 -10.9575 375.593 -7.68628 376.366L-7.62674 376.366C-7.62674 376.366 -6.0209 376.782 -2.98764 377.555C0.0456542 378.447 4.5658 379.339 10.0971 381.182C15.6284 383.025 22.4086 385.047 29.9026 388.079C37.5155 390.814 45.8422 394.56 54.8825 398.544C59.3432 400.685 63.9823 402.885 68.7999 405.204C73.558 407.641 78.435 410.198 83.431 412.755C93.3635 418.106 103.772 423.993 114.359 430.236C124.886 436.598 135.71 443.317 146.476 450.333C157.241 457.409 168.125 464.663 178.89 472.155C200.42 486.96 221.534 502.598 241.34 516.571C261.324 530.484 280.534 542.673 297.307 552.603C330.851 572.522 354.344 583.581 354.344 583.581C355.712 584.235 356.247 585.781 355.653 587.149C355.058 588.457 353.452 589.052 352.144 588.457L352.203 588.576Z" fill="#569188"/>
<path d="M755.926 564.376C765.205 555.814 771.033 548.619 773.353 542.911L776.684 544.219C774.186 550.403 768 558.073 758.365 566.992L755.926 564.376Z" fill="#569188"/>
<path d="M555.73 681.392C566.138 674.97 577.082 668.073 588.561 660.938C666.236 612.3 762.885 551.77 839.549 531.733L840.442 535.181C764.253 555.041 667.842 615.451 590.404 663.911C578.985 671.105 567.982 677.943 557.574 684.365L555.67 681.332L555.73 681.392Z" fill="#569188"/>
<path d="M723.155 499.506C725.474 500.636 721.609 515.203 712.033 541.008C703.349 564.376 689.551 583.819 668.734 597.495C670.162 575.792 679.916 557.657 691.335 538.333C701.922 520.435 720.895 498.436 723.214 499.506L723.155 499.506Z" fill="#609790"/>
<path d="M654.758 569.906C652.141 581.441 641.792 610.041 630.075 614.619C618.775 601.3 630.491 579.836 637.331 566.992C646.074 550.641 649.821 528.403 660.051 513.122C663.203 528.82 658.148 554.744 654.758 569.906Z" fill="#76AB9F"/>
<path d="M811.298 516.809C804.816 526.679 785.01 549.749 772.461 549.927C766.572 533.517 785.129 517.522 796.073 507.89C809.99 495.7 821.409 476.139 836.338 465.495C833.78 481.312 819.863 503.787 811.358 516.809L811.298 516.809Z" fill="#76AB9F"/>
<path d="M870.537 513.717C857.749 515.977 824.562 530.306 823.134 538.393C827.833 542.971 850.255 539.998 868.693 534.35C886.952 528.76 912.17 524.539 927.455 513.896C908.423 509.377 887.309 510.744 870.537 513.717Z" fill="#609790"/>
<path d="M729.341 562.117C729.103 542.971 733.325 524.003 740.641 505.868C744.566 496.117 750.038 486.96 753.428 476.912C755.629 470.371 756.462 462.82 759.852 457.112C769.368 494.809 750.336 533.755 729.4 562.117L729.341 562.117Z" fill="#76AB9F"/>
<path d="M940.48 610.457C1000.61 555.814 1106.42 442.901 1139.43 300.853L1142.82 301.626C1109.63 444.626 1003.29 558.133 942.859 613.014L940.54 610.457L940.48 610.457Z" fill="#569188"/>
<path d="M1123.84 353.594C1127.24 350.978 1130.15 348.005 1133.24 344.913C1135.38 342.772 1137.52 340.632 1139.78 338.551L1142.1 341.167C1139.84 343.188 1137.76 345.269 1135.68 347.35C1132.65 350.442 1129.5 353.594 1125.93 356.388L1123.79 353.653L1123.84 353.594Z" fill="#569188"/>
<path d="M1109.81 358.053C1109.81 355.972 1109.99 354.01 1110.46 352.285L1113.85 353.177C1112.6 357.875 1113.85 365.248 1114.86 371.788C1115.4 375.177 1115.93 378.329 1116.05 380.885L1112.54 381.064C1112.43 378.685 1111.95 375.593 1111.41 372.323C1110.64 367.626 1109.81 362.512 1109.81 358.053Z" fill="#569188"/>
<path d="M1099.64 408.474C1105.23 404.55 1111.47 400.567 1115.76 401.221L1115.22 404.669C1111.77 404.134 1104.16 409.545 1101.66 411.329L1099.64 408.474Z" fill="#569188"/>
<path d="M1111.77 382.729C1114.69 378.388 1118.73 375.832 1122.6 373.394C1124.44 372.204 1126.34 371.015 1128.13 369.588L1130.27 372.323C1128.36 373.81 1126.34 375.118 1124.44 376.307C1120.69 378.686 1117.18 380.886 1114.69 384.632L1111.77 382.669L1111.77 382.729Z" fill="#569188"/>
<path d="M1094.34 387.544L1097.73 386.771C1099.58 395.096 1101.3 407.107 1098.86 416.799L1095.47 415.966C1097.73 406.928 1096.13 395.512 1094.34 387.544Z" fill="#569188"/>
<path d="M1068.47 433.983L1071.68 432.615C1075.37 441.415 1075.25 449.145 1074.72 457.588L1071.21 457.35C1071.74 449.323 1071.86 442.01 1068.47 433.983Z" fill="#569188"/>
<path d="M1057.71 478.22C1058.12 475.069 1076.38 466.269 1076.56 466.15C1080.96 464.485 1085.42 462.939 1089.82 461.393C1094.29 459.847 1098.75 458.242 1103.15 456.636L1104.4 459.907C1100 461.571 1095.53 463.117 1091.01 464.723C1086.61 466.269 1082.21 467.815 1077.81 469.479C1074.72 470.669 1062.23 477.804 1060.98 479.29L1059.73 478.339L1058.48 480.063L1057.71 478.279L1057.71 478.22ZM1061.16 478.279C1061.16 477.863 1060.86 477.447 1060.5 477.209L1059.79 478.22L1061.16 478.339L1061.16 478.279Z" fill="#569188"/>
<path d="M1011.44 537.441C1014.65 534.765 1019.17 508.009 1017.38 491.539L1020.83 491.182C1022.44 506.344 1018.81 535.776 1013.7 540.117L1011.44 537.441Z" fill="#569188"/>
<path d="M1024.58 522.339C1034.45 517.285 1049.38 514.966 1061.69 516.512L1061.28 519.96C1049.8 518.474 1035.4 520.733 1026.19 525.431L1024.58 522.339Z" fill="#569188"/>
<path d="M1151.98 184.432C1154.48 184.551 1157.87 208.81 1157.92 239.134C1157.92 266.605 1157.27 282.896 1137.35 315.421C1140.2 291.161 1133.9 270.172 1137.82 245.497C1141.45 222.724 1149.48 184.254 1152.04 184.373L1151.98 184.432Z" fill="#609790"/>
<path d="M989.31 429.82C992.462 429.939 995.139 448.193 996.864 481.788C998.41 512.231 992.224 540.712 975.393 566.101C966.531 541.009 968.672 515.977 972.181 488.744C975.452 463.534 986.158 429.701 989.31 429.82Z" fill="#609790"/>
<path d="M1189.15 414.539C1190.28 416.382 1172.79 431.604 1151.03 446.469C1131.34 459.907 1116.29 462.047 1092.68 462.88C1105.88 447.42 1123.49 438.263 1143.06 429.047C1161.14 420.485 1188.02 412.696 1189.15 414.539Z" fill="#76AB9F"/>
<path d="M1111.53 309.534C1114.86 320.534 1119.86 349.788 1112.19 359.361C1096.19 353.534 1095.77 329.691 1095.36 315.48C1094.88 297.405 1087.33 276.713 1088.64 258.875C1098.86 270.648 1107.13 295.086 1111.53 309.594L1111.53 309.534Z" fill="#76AB9F"/>
<path d="M1150.97 410.079C1141.27 412.042 1116.35 413.587 1110.05 405.501C1117.96 391.409 1137.58 393.49 1149.3 394.62C1164.17 396.047 1182.61 391.29 1197 394.323C1185.34 402.528 1163.75 407.582 1151.03 410.139L1150.97 410.079Z" fill="#76AB9F"/>
<path d="M1101.18 508.426C1091.25 514.609 1061.22 525.312 1051.46 518.296C1055.21 498.496 1080.67 494.155 1093.93 490.826C1110.76 486.545 1129.38 473.523 1146.27 471.383C1136.33 485.712 1114.33 500.28 1101.18 508.426Z" fill="#609790"/>
<path d="M1160.9 300.972C1167.98 294.194 1176.96 288.01 1184.27 281.053C1190.34 275.286 1198.9 265.059 1207.41 264.524C1201.64 278.259 1191.83 295.324 1183.14 307.572C1171.54 324.042 1153.11 336.232 1135.26 344.972C1140.08 328.264 1147.52 313.756 1160.9 300.913L1160.9 300.972Z" fill="#76AB9F"/>
<path d="M1058.6 538.631C1069.54 538.155 1081.8 539.523 1093.04 539.047C1102.43 538.69 1117.01 536.49 1124.98 542.08C1110.46 549.215 1090.06 556.171 1074 559.977C1052.41 565.15 1026.96 563.009 1005.07 557.42C1020.77 547.193 1037.96 539.523 1058.66 538.571L1058.6 538.631Z" fill="#76AB9F"/>
<path d="M1051.11 400.447C1049.38 392.004 1049.08 382.49 1047.36 373.869C1045.93 366.615 1042.36 355.377 1046.05 349.193C1053.72 360.253 1061.93 375.89 1067.05 388.258C1073.94 404.847 1075.25 424.528 1073.17 441.534C1062.76 429.582 1054.38 416.442 1051.11 400.507L1051.11 400.447Z" fill="#76AB9F"/>
<path d="M1122.95 374.702C1135.38 362.156 1150.73 352.702 1167.5 345.686C1176.48 341.94 1186.18 339.561 1195.1 335.28C1200.87 332.486 1206.4 328.145 1212.4 326.659C1193.85 357.28 1156.26 372.74 1122.95 374.643L1122.95 374.702Z" fill="#609790"/>
<path d="M1019.29 499.388C1012.8 481.907 1010.48 463.058 1011.2 444.031C1011.55 433.804 1013.58 423.577 1013.4 413.231C1013.28 406.512 1011.55 399.258 1012.8 392.956C1033.92 424.469 1029.22 466.507 1019.29 499.447L1019.29 499.388Z" fill="#76AB9F"/>
<path d="M1097.08 391.113C1102.31 378.21 1085.84 358.469 1078.35 348.837C1068.71 336.41 1055.63 330.94 1046.11 318.156C1041.95 329.81 1059.31 349.551 1065.97 358.529C1074.36 369.826 1087.86 382.729 1097.08 391.113Z" fill="#609790"/>
<path d="M435.41 488.386C440.763 484.224 452.063 476.673 455.692 481.37C459.32 486.068 447.305 494.035 441.179 494.451C446.949 494.749 462.71 495.343 462.71 501.111C462.71 506.878 452.182 506.105 445.997 504.441C451.052 508.365 453.55 518.83 449.447 521.446C445.818 523.765 436.6 514.073 434.518 507.592C435.827 511.457 431.068 525.667 426.37 525.727C418.281 525.727 421.076 511.813 424.467 507.592C421.79 510.446 412.809 513.359 409.538 510.803C406.267 508.246 418.281 501.289 421.552 500.1C416.854 500.576 403.888 496.83 404.958 491.181C405.97 485.592 419.53 490.289 423.099 493.143C420.66 490.587 410.311 479.17 414.475 474.473C418.638 469.776 428.868 483.273 430.831 486.424C430.236 482.857 429.938 468.587 434.459 468.289C438.979 467.992 439.157 485.354 435.529 488.386L435.41 488.386Z" fill="#EBDFE1"/>
<path d="M434.459 491.181C430.831 490.171 427.143 492.311 426.251 495.879C425.419 499.446 426.668 503.014 430.355 504.025C433.983 505.035 436.422 503.252 438.087 499.981C439.693 496.949 438.087 492.192 434.459 491.181Z" fill="#FFA64D"/>
<path d="M917.998 459.847C912.586 467.22 900.988 480.955 895.516 475.663C890.045 470.371 902.475 455.685 909.672 453.306C902.713 454.674 883.8 458.658 882.372 450.749C881.004 442.841 893.732 440.641 901.523 441.058C894.505 437.193 889.034 423.636 893.316 418.82C897.122 414.539 910.445 425.004 914.489 433.268C911.991 428.333 914.192 407.404 919.783 405.917C929.418 403.36 929.477 423.339 926.444 430.177C928.942 425.42 938.934 418.641 943.454 421.139C947.974 423.636 935.365 436.895 931.737 439.512C937.209 437.371 953.624 438.62 953.743 446.647C953.862 454.674 936.555 452.355 931.618 449.501C935.127 452.236 950.294 464.722 946.487 472.452C942.681 480.182 927.158 464.782 924.065 461.095C925.611 465.793 929.477 485.295 924.124 487.139C918.772 488.922 914.311 465.198 917.939 459.906L917.998 459.847Z" fill="#EBDFE1"/>
<path d="M918.415 455.684C923.589 455.982 927.871 451.938 927.99 446.766C928.109 441.652 925.373 437.133 920.258 436.836C915.084 436.539 912.467 439.749 911.099 444.685C909.791 449.322 913.3 455.387 918.415 455.684Z" fill="#FFA64D"/>
<path d="M0.759132 325.707L2.30556 319.523C43.5819 329.75 81.9439 334.566 82.3602 334.625L81.5871 340.928C81.2302 340.928 42.5114 335.993 0.818664 325.707L0.759132 325.707Z" fill="#76AB9F"/>
<path d="M79.1486 338.906C80.5166 324.874 120.663 292.528 129.941 306.977C139.219 321.425 125.778 329.274 125.778 329.274C125.778 329.274 143.085 330.701 141.955 345.803C140.825 360.906 122.863 357.22 122.863 357.22C122.863 357.22 133.034 365.247 127.384 376.425C121.733 387.603 77.0075 361.56 79.1486 338.966L79.1486 338.906Z" fill="#EBDFE1"/>
<path d="M88.4271 323.566C89.4976 334.268 87.5349 344.376 84.1448 354.247C84.1448 354.247 77.1267 344.912 78.1378 338.193C79.1488 331.414 88.4271 323.625 88.4271 323.625L88.4271 323.566Z" fill="#76AB9F"/>
<path d="M1139.07 60.6975L1144.42 57.5461C1144.84 58.3191 1187.96 133.238 1189.74 240.859L1183.56 240.978C1181.83 135.081 1139.55 61.4704 1139.13 60.6975L1139.07 60.6975Z" fill="#76AB9F"/>
<path d="M1144.13 60.8756C1132.29 66.881 1085.3 49.3405 1091.91 34.1189C1098.51 18.8974 1111.83 26.2704 1111.83 26.2704C1111.83 26.2704 1103.8 10.8704 1116.41 4.09209C1129.02 -2.68626 1135.56 14.4379 1135.56 14.4379C1135.56 14.4379 1136.51 1.7137 1148.41 0.821816C1160.3 -0.0700721 1163.22 51.1243 1144.13 60.8162L1144.13 60.8756Z" fill="#EBDFE1"/>
<path d="M1127.06 60.8757C1134.97 54.5135 1144.07 51.0055 1153.7 48.865C1153.7 48.865 1150.01 59.5676 1144.07 62.1244C1138.18 64.7406 1127.06 60.8757 1127.06 60.8757Z" fill="#76AB9F"/>
</svg>
