<svg width="1672" height="750" viewBox="0 0 1672 750" fill="none" xmlns="http://www.w3.org/2000/svg">
<path d="M194.187 788.838C209.031 769.243 207.555 713.981 228.551 729.314C246.101 742.104 184.838 825.159 193.859 837.212C202.963 849.264 259.715 872.303 266.604 865.58C273.494 858.857 264.636 837.704 278.496 813.189C294.899 784.247 285.385 744.564 299.328 747.843C313.27 751.123 310.071 773.916 307.201 793.921C304.494 812.697 293.095 869.434 304.33 873.861C315.566 878.289 365.922 878.289 370.515 872.549C375.107 866.81 372.647 844.837 373.057 829.669C373.549 810.975 350.257 784.083 363.462 779.491C376.666 774.982 380.93 795.315 384.129 810.565C387.081 824.832 388.065 864.678 399.793 867.056C411.521 869.434 448.755 855.742 452.609 850.576C456.464 845.411 429.072 809.171 438.831 809.745C447.689 810.319 453.758 831.391 462.861 846.231C480.166 838.524 493.862 830.325 501.243 822.782C511.003 812.779 515.185 790.314 515.513 763.339C502.555 767.521 464.583 778.753 455.808 768.177C446.048 756.37 511.823 751.697 515.103 742.35C518.384 733.003 516.661 701.191 508.788 687.991C504.934 681.514 481.806 681.924 457.448 690.942C431.86 700.453 404.714 718.573 391.592 709.964C364.938 692.582 435.141 685.859 469.012 674.38C485.661 668.723 500.095 663.394 501.407 654.293C502.719 645.192 495.338 633.878 491.976 625.761C488.203 616.66 478.362 595.67 469.258 590.423C460.155 585.176 428.58 602.558 399.629 621.661C358.459 648.8 351.242 677.742 334.183 672.413C317.124 667.165 344.271 619.038 373.959 600.508C398.317 585.258 443.998 567.876 438.995 558.447C433.993 549.018 397.005 516.469 371.335 511.877C345.665 507.368 306.955 628.466 290.634 620.513C273.247 611.986 309.169 565.416 318.436 542.213C324.669 526.635 333.035 507.122 330.82 498.021C328.524 488.92 291.536 488.674 278.988 497.037C266.522 505.4 261.274 586.816 239.704 584.356C215.264 581.486 241.755 543.279 246.019 525.569C247.742 518.272 247.66 510.893 246.921 504.58C236.67 508.187 226.746 512.779 217.725 518.764C177.128 545.329 172.864 605.673 172.864 605.673C172.864 605.673 136.532 621.333 120.458 645.93C111.354 659.786 101.759 687.991 103.727 719.885C110.698 715.703 118.899 712.424 127.183 709.554C146.128 702.913 169.337 678.644 171.224 695.944C172.946 712.26 114.963 743.908 113.487 761.535C113.159 765.389 116.931 769.324 119.063 773.096C129.971 792.691 164.745 827.701 172.946 824.996C182.623 821.798 178.605 809.745 194.515 788.838L194.187 788.838Z" fill="#76AB9F"/>
<path d="M103.481 719.967C110.452 715.785 118.653 712.506 126.937 709.636C145.882 702.995 169.091 678.726 170.978 696.026C172.7 712.342 114.717 743.99 113.241 761.617C112.913 765.471 116.685 769.406 118.817 773.178C129.725 792.774 164.499 827.783 172.7 825.077C182.377 821.88 178.359 809.827 194.269 788.92C209.113 769.324 207.637 714.064 228.633 729.396C246.183 742.186 184.92 825.241 193.941 837.294C203.045 849.346 259.797 872.385 266.686 865.662C273.576 858.939 264.718 837.786 278.578 813.271C294.981 784.328 285.467 744.645 299.41 747.925C313.352 751.205 310.153 773.998 307.283 794.003C304.576 812.779 293.177 869.516 304.412 873.943C315.648 878.371 366.004 878.371 370.597 872.631C375.189 866.892 372.729 844.919 373.139 829.751C373.631 811.057 350.339 784.165 363.544 779.573C376.748 775.064 381.012 795.397 384.211 810.647C387.163 824.914 388.147 864.76 399.875 867.138C411.603 869.516 448.837 855.823 452.692 850.658C456.546 845.493 429.154 809.253 438.913 809.827C447.771 810.401 453.84 831.473 462.943 846.313C480.248 838.606 493.944 830.407 501.325 822.864C503.539 820.568 505.426 817.616 507.066 814.091C448.591 791.544 350.75 730.133 307.283 700.289C261.848 669.133 253.974 656.671 172.864 605.837C172.864 605.837 136.532 621.497 120.458 646.094C111.354 659.95 101.759 688.155 103.727 720.049L103.481 719.967Z" fill="#609790"/>
<path d="M485.661 810.483C485.661 810.483 452.528 795.725 405.37 769.079C381.75 755.796 354.768 739.398 326.474 720.623C298.18 701.765 269.311 680.612 239.458 660.688C224.614 650.685 209.524 640.929 194.679 631.418C179.753 621.989 164.909 613.052 150.474 604.607C135.958 596.244 121.77 588.455 108.156 581.404C101.267 577.961 94.6238 574.681 88.2268 571.401C81.6658 568.368 75.3508 565.498 69.3638 562.71C57.1439 557.463 45.9082 552.626 35.7387 549.1C25.6511 545.165 16.6297 542.623 9.33054 540.327C1.94939 538.032 -3.95558 536.884 -7.89219 535.818C-11.9108 534.834 -14.0432 534.342 -14.0432 534.342L-14.6172 534.178C-19.1279 533.03 -21.8343 528.521 -20.7681 524.011C-19.62 519.502 -15.1093 516.796 -10.5986 517.862L-10.5165 517.862C-10.5165 517.862 -8.3022 518.436 -4.11955 519.502C0.0631025 520.732 6.29605 521.962 13.9232 524.503C21.5504 527.045 30.8999 529.833 41.2335 534.014C51.7311 537.786 63.2129 542.951 75.6788 548.444C81.8298 551.396 88.2268 554.43 94.8698 557.627C101.431 560.989 108.156 564.514 115.045 568.04C128.741 575.419 143.093 583.536 157.692 592.145C172.208 600.918 187.134 610.183 201.978 619.857C216.823 629.614 231.831 639.617 246.675 649.948C276.364 670.363 305.479 691.926 332.789 711.194C360.345 730.379 386.835 747.187 409.963 760.88C456.218 788.346 488.613 803.596 488.613 803.596C490.499 804.498 491.238 806.63 490.417 808.516C489.597 810.319 487.383 811.139 485.579 810.319L485.661 810.483Z" fill="#569188"/>
<path d="M1042.36 777.113C1055.16 765.307 1063.19 755.386 1066.39 747.515L1070.99 749.319C1067.54 757.846 1059.01 768.422 1045.73 780.721L1042.36 777.113V777.113Z" fill="#569188"/>
<path d="M766.308 938.469C780.66 929.614 795.751 920.103 811.579 910.265C918.688 843.197 1051.96 759.732 1157.67 732.101L1158.9 736.857C1053.84 764.241 920.902 847.543 814.122 914.364C798.375 924.285 783.203 933.714 768.85 942.569L766.226 938.387L766.308 938.469Z" fill="#569188"/>
<path d="M997.174 687.663C1000.37 689.221 995.042 709.308 981.838 744.892C969.864 777.113 950.837 803.924 922.132 822.782C924.101 792.855 937.551 767.849 953.297 741.202C967.896 716.523 994.058 686.187 997.256 687.663L997.174 687.663Z" fill="#609790"/>
<path d="M902.86 784.738C899.251 800.644 884.981 840.081 868.824 846.395C853.242 828.029 869.398 798.431 878.83 780.721C890.886 758.174 896.053 727.51 910.159 706.438C914.505 728.083 907.534 763.831 902.86 784.738V784.738Z" fill="#76AB9F"/>
<path d="M1118.72 711.521C1109.78 725.132 1082.47 756.944 1065.16 757.19C1057.04 734.561 1082.63 712.505 1097.72 699.223C1116.91 682.415 1132.66 655.441 1153.24 640.765C1149.72 662.574 1130.53 693.566 1118.8 711.521L1118.72 711.521Z" fill="#76AB9F"/>
<path d="M1200.4 707.258C1182.77 710.374 1137.01 730.133 1135.04 741.284C1141.52 747.597 1172.44 743.498 1197.86 735.709C1223.04 728.002 1257.81 722.18 1278.89 707.504C1252.64 701.273 1223.53 703.159 1200.4 707.258Z" fill="#609790"/>
<path d="M1005.7 773.998C1005.38 747.597 1011.2 721.442 1021.29 696.435C1026.7 682.989 1034.24 670.363 1038.92 656.507C1041.95 647.488 1043.1 637.075 1047.78 629.204C1060.9 681.186 1034.65 734.889 1005.79 773.998L1005.7 773.998Z" fill="#76AB9F"/>
<path d="M1296.85 840.655C1379.76 765.307 1525.66 609.609 1571.18 413.735L1575.86 414.801C1530.09 611.986 1383.45 768.504 1300.13 844.181L1296.93 840.655L1296.85 840.655Z" fill="#569188"/>
<path d="M1549.69 486.46C1554.37 482.853 1558.39 478.753 1562.65 474.49C1565.6 471.538 1568.56 468.586 1571.67 465.717L1574.87 469.324C1571.76 472.112 1568.89 474.981 1566.01 477.851C1561.83 482.115 1557.49 486.46 1552.56 490.314L1549.61 486.542L1549.69 486.46Z" fill="#569188"/>
<path d="M1530.34 492.609C1530.34 489.74 1530.59 487.034 1531.24 484.656L1535.92 485.886C1534.19 492.363 1535.92 502.53 1537.31 511.549C1538.05 516.222 1538.79 520.568 1538.95 524.093L1534.11 524.339C1533.95 521.06 1533.29 516.796 1532.55 512.287C1531.49 505.81 1530.34 498.759 1530.34 492.609V492.609Z" fill="#569188"/>
<path d="M1516.32 562.136C1524.02 556.725 1532.64 551.232 1538.54 552.134L1537.8 556.889C1533.05 556.151 1522.55 563.612 1519.1 566.072L1516.32 562.136V562.136Z" fill="#569188"/>
<path d="M1533.05 526.635C1537.06 520.65 1542.64 517.124 1547.97 513.763C1550.51 512.123 1553.14 510.483 1555.6 508.515L1558.55 512.287C1555.93 514.337 1553.14 516.14 1550.51 517.78C1545.35 521.06 1540.51 524.093 1537.06 529.259L1533.05 526.553L1533.05 526.635Z" fill="#569188"/>
<path d="M1509.02 533.276L1513.69 532.21C1516.23 543.689 1518.61 560.251 1515.25 573.615L1510.57 572.467C1513.69 560.005 1511.48 544.263 1509.02 533.276V533.276Z" fill="#569188"/>
<path d="M1473.34 597.31L1477.77 595.425C1482.85 607.559 1482.69 618.218 1481.95 629.86L1477.11 629.532C1477.85 618.463 1478.02 608.379 1473.34 597.31V597.31Z" fill="#569188"/>
<path d="M1458.5 658.31C1459.07 653.965 1484.25 641.83 1484.49 641.666C1490.56 639.371 1496.71 637.239 1502.78 635.107C1508.93 632.976 1515.08 630.762 1521.15 628.548L1522.88 633.058C1516.81 635.353 1510.66 637.485 1504.42 639.699C1498.35 641.831 1492.29 643.962 1486.22 646.258C1481.95 647.898 1464.73 657.736 1463.01 659.786L1461.28 658.474L1459.56 660.852L1458.5 658.392L1458.5 658.31ZM1463.25 658.392C1463.25 657.819 1462.84 657.245 1462.35 656.917L1461.37 658.31L1463.25 658.474L1463.25 658.392Z" fill="#569188"/>
<path d="M1394.69 739.972C1399.12 736.282 1405.35 699.387 1402.89 676.676L1407.65 676.184C1409.86 697.091 1404.86 737.676 1397.81 743.662L1394.69 739.972V739.972Z" fill="#569188"/>
<path d="M1412.82 719.147C1426.43 712.178 1447.01 708.98 1463.99 711.112L1463.42 715.867C1447.59 713.817 1427.74 716.933 1415.03 723.41L1412.82 719.147Z" fill="#569188"/>
<path d="M1588.49 253.199C1591.93 253.363 1596.61 286.815 1596.69 328.63C1596.69 366.509 1595.79 388.974 1568.31 433.823C1572.25 400.371 1563.55 371.429 1568.97 337.403C1573.97 306.001 1585.04 252.954 1588.57 253.118L1588.49 253.199Z" fill="#609790"/>
<path d="M1364.18 591.571C1368.53 591.735 1372.22 616.906 1374.6 663.23C1376.73 705.209 1368.2 744.482 1344.99 779.491C1332.77 744.891 1335.72 710.374 1340.56 672.822C1345.07 638.059 1359.83 591.407 1364.18 591.571V591.571Z" fill="#609790"/>
<path d="M1639.74 570.5C1641.3 573.041 1617.19 594.031 1587.17 614.528C1560.03 633.058 1539.28 636.009 1506.72 637.157C1524.93 615.84 1549.2 603.213 1576.18 590.505C1601.12 578.699 1638.19 567.958 1639.74 570.5V570.5Z" fill="#76AB9F"/>
<path d="M1532.72 425.706C1537.31 440.874 1544.2 481.213 1533.62 494.413C1511.56 486.378 1510.98 453.5 1510.41 433.905C1509.75 408.98 1499.34 380.448 1501.14 355.851C1515.25 372.085 1526.65 405.783 1532.72 425.788L1532.72 425.706Z" fill="#76AB9F"/>
<path d="M1587.09 564.35C1573.72 567.056 1539.36 569.187 1530.67 558.037C1541.58 538.605 1568.64 541.475 1584.8 543.033C1605.3 545.001 1630.72 538.442 1650.57 542.623C1634.5 553.938 1604.73 560.907 1587.17 564.432L1587.09 564.35Z" fill="#76AB9F"/>
<path d="M1518.45 699.961C1504.75 708.488 1463.34 723.246 1449.88 713.571C1455.05 686.269 1490.15 680.284 1508.44 675.692C1531.65 669.789 1557.32 651.833 1580.61 648.882C1566.92 668.641 1536.57 688.729 1518.45 699.961V699.961Z" fill="#609790"/>
<path d="M1600.79 413.899C1610.55 404.553 1622.93 396.026 1633.02 386.433C1641.38 378.48 1653.19 364.378 1664.92 363.64C1656.97 382.579 1643.44 406.11 1631.46 423C1615.47 445.711 1590.04 462.519 1565.44 474.572C1572.08 451.533 1582.34 431.527 1600.79 413.817L1600.79 413.899Z" fill="#76AB9F"/>
<path d="M1459.73 741.612C1474.82 740.956 1491.71 742.842 1507.21 742.186C1520.17 741.694 1540.26 738.66 1551.25 746.367C1531.24 756.206 1503.11 765.799 1480.97 771.046C1451.2 778.179 1416.1 775.228 1385.91 767.521C1407.57 753.418 1431.27 742.842 1459.81 741.53L1459.73 741.612Z" fill="#76AB9F"/>
<path d="M1449.39 551.068C1447.01 539.426 1446.6 526.307 1444.23 514.419C1442.26 504.416 1437.34 488.92 1442.42 480.393C1453 495.643 1464.32 517.206 1471.37 534.26C1480.89 557.135 1482.69 584.274 1479.82 607.723C1465.47 591.243 1453.9 573.123 1449.39 551.15L1449.39 551.068Z" fill="#76AB9F"/>
<path d="M1548.46 515.566C1565.6 498.267 1586.76 485.23 1609.89 475.555C1622.28 470.39 1635.64 467.11 1647.95 461.207C1655.9 457.354 1663.53 451.369 1671.81 449.319C1646.22 491.544 1594.39 512.861 1548.46 515.485L1548.46 515.566Z" fill="#609790"/>
<path d="M1405.52 687.499C1396.58 663.394 1393.38 637.403 1394.36 611.166C1394.85 597.064 1397.64 582.962 1397.4 568.696C1397.23 559.431 1394.85 549.428 1396.58 540.737C1425.69 584.192 1419.21 642.159 1405.52 687.581L1405.52 687.499Z" fill="#76AB9F"/>
<path d="M1512.79 538.196C1520.01 520.404 1497.29 493.183 1486.95 479.901C1473.67 462.765 1455.63 455.222 1442.5 437.594C1436.76 453.664 1460.71 480.885 1469.9 493.265C1481.46 508.843 1500.08 526.635 1512.79 538.196V538.196Z" fill="#609790"/>
<path d="M600.397 672.33C607.778 666.591 623.36 656.178 628.363 662.655C633.366 669.132 616.799 680.119 608.352 680.693C616.307 681.103 638.041 681.923 638.041 689.876C638.041 697.829 623.524 696.763 614.995 694.467C621.966 699.878 625.411 714.308 619.752 717.916C614.749 721.114 602.037 707.749 599.166 698.813C600.971 704.142 594.41 723.737 587.931 723.819C576.777 723.819 580.632 704.634 585.306 698.813C581.616 702.748 569.232 706.766 564.721 703.24C560.21 699.714 576.777 690.122 581.288 688.482C574.809 689.138 556.93 683.972 558.406 676.183C559.8 668.476 578.499 674.954 583.42 678.889C580.058 675.364 565.787 659.621 571.528 653.144C577.269 646.667 591.375 665.279 594.082 669.624C593.261 664.705 592.851 645.027 599.084 644.618C605.317 644.208 605.563 668.148 600.561 672.33L600.397 672.33Z" fill="#EBDFE1"/>
<path d="M599.085 676.183C594.082 674.79 588.997 677.741 587.767 682.661C586.619 687.58 588.341 692.499 593.426 693.893C598.429 695.287 601.791 692.827 604.087 688.318C606.302 684.137 604.087 677.577 599.085 676.183Z" fill="#FFA64D"/>
<path d="M1265.85 632.975C1258.39 643.142 1242.39 662.081 1234.85 654.784C1227.3 647.487 1244.44 627.236 1254.37 623.956C1244.77 625.842 1218.69 631.335 1216.72 620.431C1214.84 609.526 1232.39 606.492 1243.13 607.066C1233.45 601.737 1225.91 583.043 1231.81 576.402C1237.06 570.499 1255.43 584.929 1261.01 596.326C1257.57 589.521 1260.6 560.66 1268.31 558.61C1281.59 555.085 1281.68 582.634 1277.49 592.062C1280.94 585.503 1294.72 576.156 1300.95 579.6C1307.18 583.043 1289.8 601.327 1284.79 604.935C1292.34 601.983 1314.97 603.705 1315.14 614.773C1315.3 625.842 1291.44 622.644 1284.63 618.709C1289.47 622.48 1310.38 639.698 1305.13 650.357C1299.88 661.015 1278.48 639.78 1274.21 634.697C1276.35 641.174 1281.68 668.067 1274.3 670.608C1266.91 673.068 1260.76 640.354 1265.77 633.057L1265.85 632.975Z" fill="#EBDFE1"/>
<path d="M1266.42 627.236C1273.56 627.646 1279.46 622.071 1279.63 614.938C1279.79 607.887 1276.02 601.655 1268.96 601.245C1261.83 600.836 1258.22 605.263 1256.33 612.068C1254.53 618.463 1259.37 626.826 1266.42 627.236Z" fill="#FFA64D"/>
<path d="M1.04682 448.006L3.17923 439.479C60.0961 453.582 112.994 460.223 113.568 460.305L112.502 468.996C112.01 468.996 58.6199 462.191 1.12891 448.006L1.04682 448.006Z" fill="#76AB9F"/>
<path d="M109.14 466.208C111.026 446.859 166.385 402.256 179.179 422.18C191.973 442.103 173.438 452.926 173.438 452.926C173.438 452.926 197.303 454.894 195.745 475.719C194.187 496.544 169.419 491.461 169.419 491.461C169.419 491.461 183.443 502.53 175.652 517.944C167.861 533.358 106.187 497.446 109.14 466.29L109.14 466.208Z" fill="#EBDFE1"/>
<path d="M121.934 445.055C123.41 459.813 120.704 473.751 116.029 487.361C116.029 487.361 106.352 474.489 107.746 465.224C109.14 455.877 121.934 445.137 121.934 445.137L121.934 445.055Z" fill="#76AB9F"/>
<path d="M1570.69 82.5793L1578.07 78.2339C1578.64 79.2997 1638.1 182.607 1640.56 331.008L1632.04 331.172C1629.66 185.148 1571.35 83.6452 1570.77 82.5793L1570.69 82.5793Z" fill="#76AB9F"/>
<path d="M1577.66 82.8253C1561.34 91.1063 1496.55 66.9193 1505.65 45.93C1514.76 24.9406 1533.13 35.1074 1533.13 35.1074C1533.13 35.1074 1522.06 13.8721 1539.44 4.52533C1556.83 -4.82149 1565.85 18.7914 1565.85 18.7914C1565.85 18.7914 1567.16 1.24572 1583.57 0.0158756C1599.97 -1.21397 1603.99 69.3791 1577.66 82.7434L1577.66 82.8253Z" fill="#EBDFE1"/>
<path d="M1554.12 82.8252C1565.03 74.0524 1577.58 69.2151 1590.86 66.2634C1590.86 66.2634 1585.78 81.0215 1577.58 84.5471C1569.46 88.1546 1554.12 82.8252 1554.12 82.8252V82.8252Z" fill="#76AB9F"/>
</svg>
