<svg width="1769" height="923" viewBox="0 0 1769 923" fill="none" xmlns="http://www.w3.org/2000/svg">
<path d="M401.278 382.234C406.59 378.231 379.705 322.842 371.043 305.441C386.16 293.84 403.648 281.831 422.933 270.067C431.922 287.468 457.909 336.239 464.283 331.093C470.656 325.864 455.048 272.763 449.492 254.545C454.231 251.849 459.134 249.235 464.037 246.539C471.719 265.982 496.724 327.988 501.954 322.106C507.184 316.224 484.63 257.567 477.439 239.513C495.662 230.2 514.621 221.213 534.151 212.88C540.362 226.687 563.896 276.929 572.967 269.332C581.956 261.897 569.208 214.188 565.286 200.3C569.453 198.666 573.621 197.195 577.87 195.643C583.345 209.776 602.876 258.793 608.678 253.319C614.316 248.009 603.693 203.322 599.934 188.045C617.258 182.327 634.664 177.343 651.906 173.177C657.136 188.209 670.865 225.788 676.013 223.092C681.161 220.396 669.966 183.961 665.472 170.072C670.62 168.929 675.85 167.785 680.916 166.886C684.103 182 692.357 217.21 699.63 212.145C706.739 207.162 703.062 176.935 701.019 163.7C702.49 163.455 704.042 163.21 705.513 162.965C725.616 160.351 746.372 158.799 766.965 159.125C767.619 168.684 769.416 186.656 773.748 185.268C777.997 183.961 780.203 167.948 781.02 159.616C817.793 161.821 853.504 170.644 883.576 191.068C847.947 204.139 835.526 226.033 820.98 251.931C807.66 244.741 777.343 229.219 773.175 235.183C768.763 241.392 797.119 264.757 808.151 273.498C798.181 289.02 785.106 305.277 770.806 320.799C755.524 308.872 707.638 272.599 699.466 279.298C691.294 285.916 732.97 329.867 747.353 344.654C736.648 354.784 726.024 364.179 716.055 371.94C710.825 376.025 705.922 379.783 701.1 383.459C685.738 369.571 638.505 327.58 633.193 330.684C627.8 333.789 674.869 378.966 689.17 392.527C683.286 396.939 677.566 401.187 672.091 405.19C660.568 393.099 620.527 352.252 610.557 358.542C600.996 364.506 634.255 407.804 646.676 423.244C632.784 432.884 619.056 442.034 603.856 452.164C589.147 438.93 545.673 400.615 539.544 404.618C533.17 408.784 577.543 449.468 590.373 460.987C584.98 464.5 579.586 467.85 574.193 471.117C567.41 463.03 539.136 430.352 532.517 433.619C526.551 436.642 548.86 467.85 558.176 480.512C542.078 489.744 525.979 498.077 510.126 505.592C494.109 490.234 456.601 455.759 448.184 459.68C439.767 463.683 468.695 501.998 481.525 518.255C474.661 521.114 467.96 523.729 461.259 526.261C452.433 513.027 428.654 478.715 420.727 480.104C412.8 481.493 435.518 517.928 444.752 532.225C363.688 559.756 296.107 561.962 270.039 538.842C229.017 502.406 237.924 457.556 264.646 415.483C273.226 422.672 289.57 435.417 292.512 431.005C295.372 426.675 284.585 407.314 278.048 396.367C282.134 391.057 286.465 385.828 290.877 380.681C298.804 392.854 328.222 437.459 332.88 431.495C337.538 425.532 313.595 377.25 306.567 363.525C315.965 353.804 325.607 344.572 335.005 336.076C341.216 345.961 361.563 377.414 365.731 374.064C369.653 370.878 353.8 337.955 347.426 325.047C351.022 321.943 354.454 319.002 357.804 316.143C358.213 315.816 358.703 315.407 359.112 315.081C367.529 331.583 396.048 386.237 401.442 382.152L401.278 382.234Z" fill="#76AB9F"/>
<path d="M773.584 185.267C777.833 183.96 780.04 167.948 780.857 159.615C817.63 161.821 853.34 170.644 883.413 191.068C737.71 186.656 561.69 337.546 494.273 388.605C435.926 432.802 300.765 513.435 265.3 534.43C229.589 498.811 238.66 455.84 264.401 415.483C272.981 422.672 289.325 435.416 292.267 431.005C295.127 426.675 284.34 407.313 277.802 396.366C281.888 391.056 286.219 385.828 290.632 380.681C298.559 392.853 327.977 437.459 332.635 431.495C337.293 425.531 313.35 377.25 306.322 363.525C315.72 353.803 325.362 344.572 334.76 336.076C340.97 345.961 361.318 377.413 365.486 374.064C369.408 370.878 353.555 337.955 347.181 325.047C350.776 321.942 354.209 319.001 357.559 316.142C357.968 315.815 358.458 315.407 358.866 315.08C367.283 331.582 395.803 386.236 401.196 382.151C406.508 378.148 379.623 322.759 370.961 305.358C386.079 293.758 403.566 281.749 422.851 269.985C431.84 287.386 457.827 336.157 464.201 331.011C470.575 325.782 454.967 272.681 449.41 254.463C454.149 251.767 459.052 249.153 463.955 246.457C471.637 265.9 496.643 327.906 501.872 322.024C507.102 316.142 484.548 257.485 477.357 239.431C495.58 230.118 514.539 221.131 534.069 212.798C540.28 226.605 563.815 276.847 572.885 269.249C581.874 261.815 569.126 214.106 565.204 200.217C569.371 198.584 573.539 197.113 577.788 195.561C583.263 209.694 602.794 258.711 608.596 253.237C614.234 247.927 603.611 203.24 599.852 187.963C617.176 182.245 634.582 177.261 651.825 173.095C657.055 188.127 670.783 225.706 675.931 223.01C681.079 220.314 669.884 183.878 665.39 169.99C670.538 168.847 675.768 167.703 680.834 166.804C684.021 181.918 692.275 217.128 699.548 212.063C706.657 207.08 702.98 176.853 700.937 163.618C702.408 163.373 703.96 163.128 705.431 162.883C725.534 160.269 746.29 158.717 766.883 159.043C767.537 168.602 769.335 186.574 773.666 185.186L773.584 185.267Z" fill="#609790"/>
<path d="M820.163 199.318C820.163 199.318 816.568 199.972 809.867 201.279C803.411 202.913 793.768 205.445 782.001 210.102C770.152 214.514 756.097 220.967 740.325 229.055C724.553 237.143 707.066 246.865 688.434 258.384C651.171 281.258 608.923 310.015 564.959 342.692C542.813 358.868 519.851 375.615 496.561 392.608C473.19 409.6 449.328 426.511 425.385 443.422C401.36 460.169 377.253 476.917 353.228 492.929C341.297 501.098 329.285 508.859 317.354 516.62C305.505 524.381 293.738 531.897 281.97 539.168C270.366 546.521 258.762 553.546 247.322 560.327C235.963 567.189 224.686 573.643 213.654 579.77C191.59 592.188 170.262 603.217 150.241 612.693C130.22 622.17 111.425 630.094 94.5914 636.63C77.6758 643.002 62.8031 648.312 50.3821 651.907C38.0426 655.91 28.1549 658.442 21.454 660.158C14.7532 661.955 11.1575 662.936 11.1575 662.936C6.41789 664.161 1.59666 661.383 0.289164 656.645C-0.936604 651.907 1.84172 647.087 6.58134 645.78L6.90824 645.698C6.90824 645.698 10.4221 644.799 16.9595 643.084C23.4969 641.368 33.1396 638.917 45.1521 635.078C57.328 631.565 71.7921 626.418 88.2991 620.291C104.724 614 123.111 606.24 142.805 597.008C162.417 587.695 183.582 577.238 205.482 565.147C216.433 559.183 227.71 552.975 238.987 546.276C250.345 539.74 261.949 532.878 273.553 525.689C285.239 518.581 297.088 511.31 308.937 503.713C320.868 496.197 332.88 488.517 344.811 480.593C368.918 464.908 393.106 448.487 417.213 431.985C441.32 415.401 465.345 398.735 488.798 382.069C512.251 365.322 535.377 348.901 557.686 332.971C602.467 301.028 645.287 272.517 683.531 250.459C702.571 239.349 720.549 230.036 736.729 222.275C752.91 214.432 767.537 208.632 779.795 204.547C791.971 200.299 802.022 198.093 808.886 196.622C815.669 195.642 819.264 195.07 819.264 195.07C820.49 194.907 821.552 195.724 821.798 196.949C821.961 198.093 821.144 199.237 820 199.4L820.163 199.318Z" fill="#569188"/>
<path d="M122.96 337.153C142.654 343.771 167.986 382.903 175.259 362.315C181.388 344.996 99.0983 316.403 99.6703 303.659C100.242 290.914 128.844 247.78 136.852 249.25C144.86 250.721 148.783 269.592 170.111 280.131C195.362 292.548 207.619 324.654 215.791 315.75C223.963 306.845 210.888 292.466 199.284 279.886C188.416 268.121 153.441 234.055 159.161 225.559C164.881 217.062 199.938 193.126 205.903 194.923C211.869 196.72 220.613 213.223 228.131 223.598C237.365 236.342 234.014 266.243 245.373 263.138C256.732 260.034 250.031 243.858 244.964 231.686C240.225 220.33 221.92 192.145 228.948 184.875C235.975 177.604 268.417 169.434 273.566 171.15C278.714 172.947 276.916 211.18 283.454 206.115C289.337 201.54 283.453 183.894 282.8 169.271C298.571 166.412 312.055 165.595 320.717 167.31C332.321 169.598 345.886 183.322 358.961 201.949C347.929 205.135 316.141 215.428 315.078 227.029C313.852 239.937 361.984 211.834 368.685 216.817C375.386 221.801 389.36 244.757 390.177 257.665C390.585 263.955 374.324 274.739 352.995 280.049C330.605 285.604 303.066 285.931 297.999 298.185C287.785 323.02 339.839 294.264 368.93 286.094C383.231 282.091 395.815 278.905 401.045 284.624C406.275 290.342 406.602 301.78 408.073 308.969C409.789 317.138 412.894 336.418 409.054 344.424C405.213 352.43 374.896 355.371 345.641 355.862C303.965 356.597 285.17 339.849 275.854 351.613C266.538 363.377 308.296 383.965 337.877 382.821C362.148 381.84 402.189 372.201 403.17 381.105C404.151 390.01 393.936 430.367 378.246 445.726C362.556 461.084 277.815 395.238 270.215 408.473C262.125 422.688 309.44 438.046 326.927 449.729C338.695 457.571 353.894 467.211 356.591 474.646C359.288 482.08 333.628 499.889 320.962 500.053C308.296 500.134 265.802 445.889 251.992 457.98C236.302 471.623 272.994 485.674 284.352 495.886C289.01 500.134 292.524 505.363 294.976 510.019C286.068 512.389 276.998 513.859 267.845 514.104C226.905 514.921 195.117 474.891 195.117 474.891C195.117 474.891 162.348 481.263 139.467 471.786C126.555 466.476 106.371 451.363 92.5609 428.243C99.4252 427.835 106.698 426.201 113.807 424.322C130.151 419.91 157.935 425.792 150.989 412.803C144.452 400.63 88.8835 406.186 79.486 394.667C77.443 392.134 78.1785 387.641 77.8517 383.965C76.1356 365.175 83.6536 324.164 90.6813 322.122C98.9348 319.671 101.877 330.046 122.96 337.072L122.96 337.153Z" fill="#76AB9F"/>
<path d="M92.6425 428.407C99.5068 427.998 106.78 426.364 113.889 424.485C130.233 420.074 158.017 425.956 151.071 412.966C144.533 400.794 88.9652 406.349 79.5676 394.83C77.5247 392.298 78.2602 387.804 77.9333 384.128C76.2172 365.338 83.7353 324.328 90.7631 322.285C99.0165 319.834 101.958 330.21 123.042 337.235C142.736 343.853 168.068 382.984 175.341 362.397C181.47 345.078 99.1799 316.485 99.7519 303.741C100.324 290.996 128.925 247.861 136.934 249.332C144.942 250.802 148.864 269.674 170.193 280.213C195.443 292.63 207.701 324.736 215.873 315.831C224.045 306.927 210.97 292.548 199.366 279.968C188.497 268.203 153.522 234.137 159.242 225.641C164.963 217.144 200.02 193.208 205.985 195.005C211.95 196.802 220.694 213.305 228.212 223.68C237.446 236.424 234.096 266.324 245.455 263.22C256.813 260.116 250.113 243.94 245.046 231.768C240.306 220.412 222.002 192.227 229.029 184.957C236.057 177.767 268.499 169.516 273.647 171.232C278.795 172.947 276.998 211.262 283.535 206.197C289.419 201.622 283.535 183.976 282.881 169.353C298.653 166.494 312.136 165.677 320.798 167.392C323.413 167.882 326.192 169.108 328.97 170.742C298.98 214.285 260.082 303.659 243.984 345.242C227.232 388.621 227.64 401.039 195.362 475.136C195.362 475.136 162.593 481.508 139.712 472.032C126.8 466.722 106.616 451.608 92.806 428.488L92.6425 428.407Z" fill="#609790"/>
<path d="M321.615 186.672C321.615 186.672 306.334 212.732 287.294 253.988C277.733 274.575 267.355 298.92 257.385 325.389C247.579 351.858 237.609 380.778 226.741 409.126C221.348 423.341 215.709 437.556 209.989 451.444C204.269 465.332 198.303 478.894 192.338 491.965C186.291 504.954 180.244 517.454 174.196 529.136C171.091 534.936 168.068 540.573 165.126 546.047C162.02 551.439 158.997 556.667 156.137 561.65C150.09 571.535 144.533 580.522 139.058 588.201C133.828 596.044 128.598 602.498 124.512 607.89C120.344 613.281 116.585 617.203 114.297 619.98C111.927 622.758 110.62 624.229 110.62 624.229C107.596 627.741 102.285 628.068 98.771 625.045C95.2571 622.023 94.9302 616.713 97.9537 613.2L98.3624 612.791C98.3624 612.791 99.5882 611.402 101.876 608.87C104.083 606.256 107.678 602.661 111.682 597.596C115.687 592.531 120.753 586.486 125.901 578.97C131.295 571.699 136.851 563.039 142.817 553.563C145.677 548.743 148.701 543.759 151.806 538.531C154.748 533.221 157.853 527.747 160.958 522.11C167.087 510.755 173.216 498.582 179.345 485.838C185.392 473.093 191.521 459.777 197.404 446.134C203.288 432.491 209.09 418.521 214.728 404.47C226.169 376.367 236.139 347.937 246.925 321.305C257.712 294.754 268.826 270.491 278.959 249.985C299.225 208.974 315.323 182.914 315.323 182.914C316.385 181.198 318.673 180.626 320.389 181.688C322.106 182.75 322.678 184.956 321.615 186.672Z" fill="#569188"/>
<path d="M1620.11 299.656L1624.2 296.96C1633.84 311.338 1642.34 320.897 1649.53 325.227L1647 329.393C1639.15 324.655 1630.08 314.688 1620.11 299.656Z" fill="#569188"/>
<path d="M1620.11 367.626C1620.76 366.319 1621.58 364.767 1622.48 363.051C1625.99 356.516 1630.73 347.611 1630.98 339.523L1635.88 339.686C1635.56 348.918 1630.49 358.395 1626.81 365.339C1625.91 366.972 1625.18 368.443 1624.52 369.75L1620.11 367.626Z" fill="#569188"/>
<path d="M1597.23 304.313C1603.44 291.323 1611.12 272.288 1606.55 257.093L1611.28 255.704C1616.35 272.533 1608.26 292.794 1601.64 306.437L1597.23 304.313Z" fill="#569188"/>
<path d="M1598.46 234.3L1602.21 231.196C1613.82 245.329 1631.63 256.603 1638.25 260.851C1639.56 261.668 1640.46 262.24 1640.95 262.648L1638.09 266.651C1637.6 266.325 1636.78 265.753 1635.56 265.018C1628.69 260.688 1610.47 249.169 1598.29 234.382L1598.46 234.3Z" fill="#569188"/>
<path d="M1571.9 242.225C1579.99 235.036 1589.63 218.942 1589.63 209.629L1589.63 209.465L1594.53 209.465C1594.53 209.465 1594.53 209.465 1594.53 209.629C1594.53 221.393 1583.26 238.63 1575.17 245.819L1571.9 242.143L1571.9 242.225Z" fill="#569188"/>
<path d="M1567.4 151.707L1571.32 148.766C1580.72 161.592 1599.93 171.232 1605.65 173.928L1603.6 178.34C1597.64 175.562 1577.54 165.432 1567.4 151.707Z" fill="#569188"/>
<path d="M1554 172.703C1554.65 169.353 1555.64 166.085 1556.62 162.573C1559.15 153.831 1561.76 144.763 1559.72 134.306L1564.54 133.326C1566.83 144.927 1563.97 154.975 1561.36 163.88C1560.37 167.311 1559.48 170.497 1558.82 173.601L1554 172.703Z" fill="#569188"/>
<path d="M1539.7 85.616L1543.54 82.5933C1548.44 88.7204 1554.08 93.2953 1560.62 98.5238C1567.4 103.997 1573.94 107.265 1580.8 110.696C1584.24 112.412 1587.75 114.209 1591.35 116.17L1588.89 120.418C1585.38 118.457 1582.03 116.742 1578.6 115.026C1571.82 111.595 1564.79 108.082 1557.92 102.69C1550.98 97.135 1544.85 92.2333 1539.62 85.6977L1539.7 85.616Z" fill="#569188"/>
<path d="M1519.92 38.2333L1524.01 35.5374C1529 43.0533 1539.05 48.6902 1548.77 54.1637C1553.67 56.8597 1558.33 59.4739 1562.17 62.2515L1559.31 66.2545C1555.64 63.6403 1551.14 61.1078 1546.4 58.4119C1536.19 52.6932 1525.56 46.8112 1519.92 38.2333Z" fill="#569188"/>
<path d="M1523.19 111.268C1534.88 81.123 1530.3 63.3135 1530.3 63.1501L1535.04 61.843C1535.29 62.5783 1540.19 81.2864 1527.77 113.066L1523.19 111.268Z" fill="#569188"/>
<path d="M1504.32 1.87897L1508.81 -6.1867e-06C1515.27 15.4403 1522.21 31.8609 1529.49 48.9351C1578.68 164.778 1639.8 309.051 1650.35 417.378L1645.44 417.868C1634.98 310.195 1574.02 166.412 1524.99 50.8141C1517.72 33.7399 1510.77 17.3193 1504.32 1.87897Z" fill="#569188"/>
<path d="M1674.86 105.631C1674.13 108.082 1649.53 105.141 1619.87 97.2982C1592.98 90.2725 1577.29 85.3708 1550.57 57.5129C1573.53 66.581 1595.68 65.8458 1618.8 75.9759C1640.13 85.3708 1675.68 103.18 1674.86 105.631Z" fill="#609790"/>
<path d="M1719.4 266.488C1717.35 269.347 1698.4 261.014 1665.55 242.388C1635.72 225.559 1612.35 202.603 1598.29 171.395C1627.46 178.094 1649.94 195.169 1673.72 214.857C1695.7 233.075 1721.44 263.629 1719.48 266.488L1719.4 266.488Z" fill="#609790"/>
<path d="M1560.13 443.439C1557.11 442.867 1557.92 410.189 1563.07 373.508C1567.73 340.258 1579.74 322.612 1601.32 297.205C1604.91 325.635 1597.72 352.594 1588.73 381.759C1580.48 408.718 1563.15 444.092 1560.13 443.52L1560.13 443.439Z" fill="#76AB9F"/>
<path d="M1638.66 158.406C1623.62 152.36 1587.01 132.1 1583.34 115.271C1603.85 102.853 1630.49 123.359 1646.42 135.45C1666.69 150.808 1696.11 160.775 1714.58 177.931C1692.59 178.83 1658.44 166.33 1638.66 158.406Z" fill="#76AB9F"/>
<path d="M1676.74 382.331C1664.73 371.384 1637.68 339.523 1640.21 322.449C1663.75 318.037 1681.48 346.63 1692.1 363.541C1705.67 385.027 1729.69 404.797 1740.89 427.345C1720.05 420.482 1692.43 396.709 1676.74 382.331Z" fill="#76AB9F"/>
<path d="M1668.16 463.372C1667.92 445.563 1655.58 397.444 1644.95 393.686C1637.76 399.078 1636.86 430.122 1640.54 456.428C1644.22 482.407 1644.46 517.535 1655.58 540.573C1665.87 515.738 1668.57 486.818 1668.16 463.372Z" fill="#609790"/>
<path d="M1517.39 228.826C1520.99 211.507 1540.44 168.372 1558.17 166.493C1575.82 193.126 1554.16 224.17 1544.11 241.652C1531.28 263.873 1526.22 297.94 1511.1 317.71C1505.79 291.078 1512.73 251.701 1517.47 228.908L1517.39 228.826Z" fill="#609790"/>
<path d="M1547.79 303.25C1538.8 313.707 1526.95 323.674 1517.72 334.376C1509.96 343.281 1499.41 358.639 1487.48 360.927C1493.53 341.32 1504.81 316.485 1515.18 298.349C1529.08 274.003 1552.94 252.599 1576.88 237.568C1572.63 261.014 1564.79 283.562 1547.79 303.332L1547.79 303.25Z" fill="#76AB9F"/>
<path d="M1528.26 103.507C1527.85 128.342 1521.64 153.014 1511.43 176.461C1505.95 189.042 1498.43 200.969 1493.61 213.958C1490.51 222.373 1489.12 232.258 1484.46 239.611C1473.35 190.43 1496.31 138.064 1528.26 103.507Z" fill="#76AB9F"/>
<path d="M1626.08 360.927C1625.26 385.762 1618.56 410.27 1607.93 433.553C1602.21 446.053 1594.53 457.817 1589.47 470.725C1586.2 479.139 1584.64 488.942 1579.91 496.213C1569.69 446.87 1593.55 394.912 1626.08 360.927Z" fill="#609790"/>
<path d="M1633.1 261.341C1659.09 265.181 1683.93 275.066 1706.98 288.872C1719.32 296.306 1730.59 305.701 1743.5 312.482C1751.84 316.893 1761.97 319.671 1769 325.471C1715.8 330.209 1667.1 295.898 1633.1 261.341Z" fill="#76AB9F"/>
<path d="M929.023 346.549C918.972 340.013 899.932 325.553 905.57 316.812C911.291 308.07 931.557 323.511 935.724 333.478C932.864 323.674 924.774 297.042 934.417 293.774C944.059 290.506 948.881 308.479 949.698 319.753C953.294 309.051 969.31 298.921 976.011 304.231C981.976 308.969 971.19 329.965 961.547 337.072C967.267 332.661 993.744 332.334 996.522 340.177C1001.34 353.656 976.42 357.087 967.431 353.82C973.805 356.679 983.856 369.913 981.486 376.857C979.116 383.801 960.566 367.789 956.644 363.051C960.158 370.649 961.384 394.34 951.414 395.892C941.444 397.444 941.526 372.119 944.141 364.522C941.281 369.995 928.206 393.932 917.991 389.683C907.777 385.517 924.284 360.6 928.451 355.535C922.813 358.558 899.196 367.381 896.009 359.947C892.904 352.512 921.75 342.219 928.942 346.549L929.023 346.549Z" fill="#EBDFE1"/>
<path d="M934.335 346.548C934.744 353.247 940.464 358.149 946.92 357.496C953.375 356.842 958.524 352.676 958.115 345.977C957.706 339.278 953.294 336.337 946.92 335.356C940.873 334.458 933.927 339.849 934.335 346.548Z" fill="#FFA64D"/>
<path d="M1694.47 844.643C1694.88 843.662 1732.72 746.037 1715.07 616.714L1722.58 615.652C1740.48 747.099 1701.91 846.44 1701.5 847.42L1694.39 844.643L1694.47 844.643Z" fill="#76AB9F"/>
<path d="M1700.52 843.499C1684.99 838.352 1630.98 868.497 1641.85 885.817C1652.63 903.136 1667.59 891.699 1667.59 891.699C1667.59 891.699 1660.64 911.959 1677.31 917.841C1693.9 923.723 1698.72 901.666 1698.72 901.666C1698.72 901.666 1702.32 917.024 1716.95 915.88C1731.57 914.737 1725.61 851.832 1700.52 843.581L1700.52 843.499Z" fill="#FFEBAB"/>
<path d="M1679.76 846.685C1690.63 852.975 1702.32 855.59 1714.49 856.406C1714.49 856.406 1707.96 844.071 1700.28 842.028C1692.59 839.986 1679.76 846.767 1679.76 846.767L1679.76 846.685Z" fill="#76AB9F"/>
<path d="M1597.31 850.606C1597.88 849.789 1657.95 765.561 1717.84 651.434L1724.79 655.11C1664.56 769.81 1604.26 854.364 1603.69 855.181L1597.31 850.606Z" fill="#76AB9F"/>
<path d="M1600.5 849.216C1615.86 857.304 1633.76 918.33 1612.92 922.088C1592.08 925.846 1589.47 906.811 1589.47 906.811C1589.47 906.811 1579.74 925.846 1562.99 917.432C1546.24 909.017 1558.99 890.309 1558.99 890.309C1558.99 890.309 1545.09 898.152 1535.04 886.388C1524.99 874.624 1575.74 836.064 1600.5 849.135L1600.5 849.216Z" fill="#EBDFE1"/>
<path d="M1613.57 866.945C1600.91 863.105 1590.28 856.161 1580.64 847.665C1580.64 847.665 1594.53 844.071 1601.81 848.4C1609.08 852.73 1613.57 866.945 1613.57 866.945Z" fill="#76AB9F"/>
<path d="M5.36755 720.711L6.26645 712.297C151.07 727.083 258.447 681.334 259.51 680.844L262.942 688.605C261.88 689.095 152.541 735.743 5.44934 720.711L5.36755 720.711Z" fill="#76AB9F"/>
<path d="M258.366 687.706C252.074 670.55 283.617 609.361 303.392 620.798C323.086 632.235 310.829 649.228 310.829 649.228C310.829 649.228 333.138 640.731 340.329 659.031C347.52 677.331 323.086 683.539 323.086 683.539C323.086 683.539 340.329 686.971 339.593 703.31C338.858 719.648 268.581 715.319 258.448 687.706L258.366 687.706Z" fill="#FFEBAB"/>
<path d="M261.144 664.423C268.581 676.269 271.85 689.259 273.239 702.657C273.239 702.657 259.265 695.876 256.65 687.38C254.035 678.883 261.144 664.342 261.144 664.342L261.144 664.423Z" fill="#76AB9F"/>
</svg>
